General
Complete name                    : Dead Poets Society .mkv
Format                           : Matroska
File size                        : 1.35 GiB
Duration                         : 2h 3mn
Overall bit rate                 : 1 568 Kbps
Writing application              : HandBrake 0.9.4

Video
ID                               : 1
Format                           : AVC
Duration                         : 2h 3mn
Bit rate                         : 1 153 Kbps
Width                            : 720 pixels
Height                           : 576 pixels
Display aspect ratio             : 16:9
Resolution                       : 8 bits
Colorimetry                      : 4:2:0
Scan type                        : Progressive
Bits/(Pixel*Frame)               : 0.111
Stream size                      : 1 019 MiB (74%)
Writing library                  : x264 core 79

Audio
ID                               : 2
Format                           : AC-3
Format/Info                      : Audio Coding 3
Codec ID                         : A_AC3
Duration                         : 2h 3mn
Bit rate mode                    : Constant
Bit rate                         : 384 Kbps
Channel(s)                       : 6 channels
Channel positions                : Front: L C R, Side: L R, LFE
Sampling rate                    : 48.0 KHz
Stream size                      : 339 MiB (24%)
Language                         : English

Text #1
Language                         : English

Text #2
Language                         : Spanish

Text #3
Language                         : Swedish

Text #4
Language                         : Norwegian

Text #5
Language                         : Danish

Text #6
Language                         : Finnish

Text #7
Language                         : Icelandic

Menu
00:00:00.000                     : Chapter 1
00:09:17.760                     : Chapter 2


